<svg version="1.2" xmlns="http://www.w3.org/2000/svg" viewBox="33 65 55 32" preserveAspectRatio="none">
	<title>SVG</title>
	<style>
		.s0 { fill: white; } 
	</style>
	<g id="SVG">
		<g id="layer1">
			<path id="path950" class="s0" d="m60.71 66.69q-1.81 0-3.55 0.56-1.74 0.55-3.28 1.61-1.54 1.07-2.76 2.57-1.23 1.49-2.05 3.31-0.5-0.23-1.03-0.41-0.53-0.17-1.07-0.29-0.54-0.11-1.09-0.17-0.55-0.06-1.11-0.06c-1.38 0-2.75 0.27-4.02 0.8-1.28 0.53-2.43 1.3-3.41 2.28-0.98 0.97-1.75 2.13-2.28 3.41-0.53 1.27-0.8 2.64-0.8 4.02 0 1.38 0.27 2.75 0.8 4.02 0.53 1.28 1.3 2.44 2.28 3.41 0.98 0.98 2.13 1.75 3.41 2.28 1.27 0.53 2.64 0.8 4.02 0.8q0.97 0 1.92-0.18 0.96-0.18 1.86-0.53 0.91-0.35 1.73-0.85 0.83-0.51 1.55-1.16 0.89 0.93 1.93 1.67 1.04 0.73 2.18 1.23 1.14 0.51 2.34 0.76 1.21 0.26 2.43 0.26 1.17 0 2.32-0.24 1.16-0.23 2.25-0.69 1.1-0.47 2.1-1.14 1.01-0.67 1.89-1.54 0.7 0.58 1.49 1.03 0.79 0.45 1.65 0.76 0.85 0.31 1.75 0.46 0.89 0.16 1.8 0.16c1.38 0 2.75-0.27 4.02-0.8 1.28-0.53 2.44-1.3 3.41-2.28 0.98-0.97 1.75-2.13 2.28-3.41 0.53-1.27 0.8-2.64 0.8-4.02 0-1.38-0.27-2.75-0.8-4.02-0.53-1.28-1.3-2.44-2.28-3.41-0.97-0.98-2.13-1.75-3.41-2.28-1.27-0.53-2.64-0.8-4.02-0.8q-0.48 0-0.95 0.04-0.48 0.05-0.94 0.13-0.47 0.09-0.93 0.22-0.46 0.12-0.9 0.29-0.84-1.76-2.06-3.21-1.22-1.45-2.74-2.49-1.53-1.03-3.24-1.56-1.71-0.54-3.49-0.54z"/>
		</g>
	</g>
</svg>