<svg version="1.2" xmlns="http://www.w3.org/2000/svg" viewBox="110 18 70 35" preserveAspectRatio="none">
	<title>SVG</title>
	<style>
		.s0 { fill: white; } 
	</style>
	<g id="SVG">
		<g id="layer1">
			<path id="path921" class="s0" d="m140.05 19.79q-1.83 0-3.59 0.52-1.76 0.52-3.3 1.51-1.54 1-2.74 2.39-1.19 1.4-1.95 3.07-0.28-0.1-0.56-0.18-0.29-0.07-0.58-0.12-0.29-0.05-0.58-0.08-0.3-0.02-0.59-0.02-1.36 0-2.62 0.52-1.26 0.52-2.22 1.48-0.96 0.97-1.49 2.22-0.52 1.26-0.52 2.62 0 0.1 0.01 0.2 0 0.1 0.01 0.2 0 0.1 0.01 0.2 0.01 0.1 0.02 0.2-1.32 0.17-2.51 0.79-1.18 0.63-2.06 1.63-0.89 1.01-1.36 2.26-0.47 1.25-0.48 2.59 0.01 1.46 0.56 2.81 0.56 1.34 1.59 2.38 1.04 1.03 2.38 1.59 1.35 0.55 2.81 0.55 0.09 0 0.18 0 0.09 0 0.19 0 0.09-0.01 0.18-0.02 0.09 0 0.18-0.01v0.03h45.68 0.78v-0.04q1.35-0.14 2.56-0.76 1.2-0.62 2.11-1.63 0.91-1.01 1.4-2.27 0.48-1.27 0.48-2.63 0-1.46-0.56-2.81-0.56-1.34-1.59-2.38-1.03-1.03-2.38-1.59-1.34-0.55-2.8-0.55-0.06 0-0.11 0-0.05 0-0.11 0-0.05 0-0.1 0-0.05 0.01-0.11 0.01 0-0.04 0.01-0.08 0-0.04 0-0.08 0-0.04 0-0.07 0-0.04 0-0.08c0-1.4-0.27-2.78-0.81-4.07-0.53-1.29-1.31-2.47-2.3-3.45-0.99-0.99-2.16-1.77-3.45-2.31-1.29-0.53-2.67-0.81-4.07-0.81q-0.7 0-1.4 0.09-0.7 0.1-1.37 0.28-0.68 0.18-1.33 0.45-0.65 0.27-1.25 0.63-0.89-1.21-2.03-2.17-1.14-0.97-2.48-1.64-1.33-0.68-2.79-1.03-1.45-0.34-2.95-0.34z"/>
		</g>
	</g>
</svg>