<svg version="1.2" xmlns="http://www.w3.org/2000/svg" viewBox="115 63 55 35" preserveAspectRatio="none">
	<title>SVG</title>
	<style>
		.s0 { fill: white; }
	</style>
	<g id="SVG">
		<g id="layer1">
			<path id="path966" class="s0" d="m146.33 67.69q-1.23 0-2.43 0.3-1.2 0.3-2.31 0.88-1.1 0.58-2.04 1.41-0.94 0.83-1.67 1.86-0.5-0.3-1.04-0.53-0.53-0.23-1.09-0.39-0.56-0.16-1.13-0.24-0.58-0.08-1.16-0.08c-1.15 0-2.29 0.24-3.36 0.7-1.06 0.46-2.03 1.13-2.84 1.98-0.82 0.85-1.46 1.86-1.9 2.96-0.45 1.11-0.67 2.3-0.67 3.5q0 0.04 0 0.07 0 0.03 0 0.07 0 0.03 0 0.06 0.01 0.04 0.01 0.07-0.05 0-0.09 0-0.04-0.01-0.09-0.01-0.04 0-0.09 0-0.04 0-0.08 0-1.21 0-2.32 0.48-1.11 0.48-1.96 1.36-0.85 0.89-1.31 2.05-0.46 1.16-0.46 2.41 0 1.17 0.4 2.26 0.4 1.09 1.15 1.96 0.75 0.86 1.74 1.4 1 0.52 2.11 0.65v0.04h0.55q0.37 0.91 1 1.68 0.63 0.76 1.45 1.31 0.82 0.55 1.76 0.84 0.95 0.29 1.94 0.29 0.99 0 1.94-0.29 0.94-0.29 1.76-0.84 0.83-0.55 1.45-1.31 0.63-0.77 1.01-1.68h0.22q0.47 0.93 1.17 1.69 0.7 0.77 1.59 1.31 0.88 0.55 1.88 0.84 1 0.28 2.04 0.28 0.97 0 1.9-0.25 0.94-0.25 1.78-0.73 0.85-0.48 1.54-1.15 0.69-0.68 1.19-1.52 0.49 0.84 1.19 1.52 0.69 0.67 1.53 1.15 0.84 0.48 1.78 0.73 0.94 0.25 1.91 0.25 1.04 0 2.04-0.28 1-0.29 1.88-0.84 0.89-0.54 1.59-1.31 0.7-0.77 1.17-1.7 1.16-0.07 2.21-0.57 1.06-0.51 1.86-1.39 0.8-0.88 1.23-2 0.43-1.13 0.43-2.34 0-1.15-0.39-2.22-0.39-1.08-1.12-1.94-0.73-0.86-1.71-1.4-0.97-0.54-2.07-0.69 0.01-0.08 0.02-0.17 0.01-0.08 0.01-0.17 0.01-0.08 0.01-0.17 0-0.09 0.01-0.17-0.01-1.17-0.43-2.25-0.44-1.08-1.23-1.91-0.79-0.83-1.83-1.28-1.04-0.44-2.16-0.45-0.25 0-0.49 0.03-0.24 0.02-0.48 0.06-0.24 0.05-0.48 0.11-0.23 0.07-0.46 0.15-0.63-1.44-1.61-2.63-0.99-1.2-2.26-2.06-1.27-0.85-2.72-1.3-1.46-0.45-2.97-0.45z"/>
		</g>
	</g>
</svg>