<svg version="1.2" xmlns="http://www.w3.org/2000/svg" viewBox="33 17 63 32" preserveAspectRatio="none">
	<title>SVG</title>
	<style>
		.s0 { fill: white; } 
	</style>
	<g id="SVG">
		<g id="layer1">
			<path id="path910" class="s0" d="m68.56 18.79q-2.11 0-4.13 0.66-2.01 0.66-3.75 1.91-1.74 1.26-3.05 3.01-1.31 1.74-2.07 3.82-0.27-0.07-0.54-0.13-0.27-0.05-0.55-0.09-0.27-0.03-0.55-0.05-0.28-0.02-0.56-0.02-1.15 0-2.27 0.31-1.12 0.3-2.13 0.9-1.01 0.59-1.85 1.43-0.84 0.84-1.45 1.87-0.38-0.18-0.77-0.31-0.4-0.14-0.8-0.24-0.41-0.09-0.82-0.14-0.41-0.04-0.83-0.04-1.55 0-2.99 0.62-1.43 0.63-2.53 1.79-1.1 1.15-1.7 2.66-0.59 1.52-0.59 3.15 0 1.64 0.59 3.15 0.6 1.51 1.7 2.67 1.1 1.15 2.53 1.78 1.44 0.62 2.99 0.62 0.01 0 0.02 0 0.01 0 0.02 0 0.01 0 0.02 0 0.01 0 0.02 0h42.85v-0.01c1.16-0.05 2.3-0.33 3.36-0.83 1.06-0.5 2.02-1.21 2.83-2.09 0.81-0.88 1.45-1.92 1.88-3.05 0.44-1.14 0.66-2.35 0.66-3.57 0-1.26-0.23-2.5-0.69-3.66-0.46-1.16-1.12-2.21-1.97-3.1-0.84-0.89-1.84-1.59-2.94-2.07-1.1-0.48-2.28-0.73-3.48-0.73q-0.38 0-0.77 0.04-0.39 0.03-0.77 0.1-0.38 0.07-0.76 0.18-0.37 0.1-0.74 0.24-0.6-2.32-1.88-4.32-1.28-2-3.1-3.46-1.82-1.46-3.99-2.23-2.16-0.77-4.45-0.77z"/>
		</g>
	</g>
</svg>