<svg version="1.2" xmlns="http://www.w3.org/2000/svg" viewBox="107 114 80 31" preserveAspectRatio="none">
	<title>SVG</title>
	<style>
		.s0 { fill: white; } 
	</style>
	<g id="SVG">
		<g id="layer1">
			<path id="path846" class="s0" d="m136.69 115.26c-5.08 0-9.2 4.12-9.2 9.2q0 0.53 0.07 1.07-0.98-0.41-2.04-0.42c-2.9 0.01-5.26 2.36-5.26 5.26q0.01 0.61 0.14 1.2c-1.09-0.36-2.3-0.54-3.53-0.54-4.41 0-7.99 2.35-7.99 5.25 0 2.9 3.58 5.26 7.99 5.26 2.39 0 4.65-0.7 6.16-1.91 1.76 2.99 6.14 4.97 11.03 4.97 4.34 0 8.33-1.57 10.39-4.08 0.99 1.07 2.38 1.67 3.84 1.67 2.15 0 4.08-1.3 4.88-3.3 1.19 0.87 2.62 1.33 4.1 1.33 1.03 0 2.06-0.23 3-0.67 1.19 0.71 2.75 1.11 4.37 1.11 1.65 0 3.23-0.41 4.44-1.15 1.21 0.6 2.84 0.93 4.53 0.93 3.59 0 6.5-1.47 6.5-3.28 0-1.82-2.91-3.29-6.5-3.29-1.15 0-2.29 0.16-3.29 0.46-1.14-1.36-3.32-2.21-5.68-2.21q-0.23 0-0.45 0.01c-0.53-3.41-3.47-5.92-6.92-5.92-1.82 0-3.56 0.71-4.86 1.96-0.34-2.62-2.57-4.59-5.21-4.59q-0.69 0-1.35 0.18c-0.36-4.79-4.36-8.5-9.16-8.5z"/>
		</g>
	</g>
</svg>