<?xml version="1.0" encoding="UTF-8"?>
<svg version="1.1" xmlns="http://www.w3.org/2000/svg" width="400" height="400">
<path d="M0 0 C132 0 264 0 400 0 C400 132 400 264 400 400 C268 400 136 400 0 400 C0 268 0 136 0 0 Z " fill="#152644" transform="translate(0,0)"/>
<path d="M0 0 C1.10390579 -0.00043808 2.20781158 -0.00087616 3.34516907 -0.00132751 C6.94872504 0.0007417 10.5518 0.02398422 14.15527344 0.04760742 C16.67160793 0.05321001 19.18794572 0.05747698 21.70428467 0.06047058 C27.62197483 0.07070587 33.53949092 0.09428468 39.45711017 0.12451905 C46.86558225 0.16153702 54.27407609 0.17749601 61.68261719 0.1940918 C74.87671313 0.22616413 88.07067 0.27671183 101.26464844 0.34057617 C100.30425751 1.46715422 99.34300141 2.59299476 98.38137817 3.71852112 C97.84617113 4.34555215 97.31096409 4.97258318 96.75953865 5.61861515 C84.98512357 19.18154014 70.08898283 32.09160935 51.53775787 33.55580139 C43.60831286 33.90110359 35.67563752 33.79961164 27.74121094 33.73120117 C25.18289637 33.72372877 22.62457603 33.71804057 20.06625366 33.71405029 C14.05646438 33.70041807 8.04703094 33.66900046 2.03738344 33.62865233 C-4.81403827 33.58366851 -11.6654755 33.5618813 -18.51700854 33.54187059 C-32.58995297 33.50025814 -46.66263588 33.430074 -60.73535156 33.34057617 C-59.77873616 32.21307906 -58.8204974 31.08695914 -57.86157227 29.96142578 C-57.32812698 29.33417099 -56.7946817 28.7069162 -56.24507141 28.06065369 C-54.58796401 26.17265229 -52.84705142 24.51705644 -50.92285156 22.90307617 C-48.80028582 21.11228624 -46.72025614 19.3260939 -44.71582031 17.40307617 C-31.86585129 5.19679762 -17.6478076 -0.18781259 0 0 Z " fill="#FCFDFD" transform="translate(111.7353515625,202.659423828125)"/>
<path d="M0 0 C2.55688277 0.0093421 5.11377458 0.0164516 7.67066956 0.0214386 C13.67343645 0.03846862 19.67564553 0.0777258 25.67819029 0.12818605 C32.52235616 0.18444863 39.36654656 0.21165784 46.21088684 0.23666322 C60.2671493 0.28865556 74.32300207 0.37636467 88.37890625 0.48828125 C87.60562988 1.26010742 86.83235352 2.03193359 86.03564453 2.82714844 C84.30306526 4.56259358 82.58097063 6.3085889 80.87109375 8.06640625 C67.61065916 21.60392455 54.46237347 33.20814335 34.60797119 33.8490448 C32.58924022 33.85757729 30.57039459 33.85014389 28.55175781 33.82885742 C27.43809845 33.8292955 26.32443909 33.82973358 25.17703247 33.83018494 C21.54101264 33.82811544 17.9054693 33.80487151 14.26953125 33.78125 C11.73077649 33.77564751 9.19201846 33.7713805 6.65325928 33.76838684 C0.68245137 33.75815088 -5.28820678 33.73457109 -11.25893807 33.70433837 C-18.06438352 33.67063775 -24.86983759 33.65426927 -31.6753459 33.63925207 C-45.65735414 33.60801615 -59.63921471 33.5553543 -73.62109375 33.48828125 C-73.62109375 31.48828125 -73.62109375 31.48828125 -72.328125 30.18359375 C-71.39033203 29.40628906 -71.39033203 29.40628906 -70.43359375 28.61328125 C-67.74569271 26.34328708 -65.12262273 24.03801756 -62.58203125 21.60546875 C-43.13228934 3.00891473 -26.28589248 -0.28390752 0 0 Z " fill="#FCFDFD" transform="translate(260.62109375,163.51171875)"/>
<path d="M0 0 C0.66 0.33 1.32 0.66 2 1 C1.75 2.875 1.75 2.875 1 5 C-0.9375 6.1875 -0.9375 6.1875 -3 7 C-3.99 7.495 -3.99 7.495 -5 8 C-5 7.34 -5 6.68 -5 6 C-7.44480079 6.18828772 -7.44480079 6.18828772 -10 7 C-10.70394612 8.31403276 -11.36345658 9.6520257 -12 11 C-13.90767394 12.80997635 -15.92499474 14.37608284 -18 16 C-18.66 15.34 -19.32 14.68 -20 14 C-14.0204104 8.18281901 -7.79324727 3.18390786 0 0 Z " fill="#EAF0F0" transform="translate(222,168)"/>
<path d="M0 0 C0.66 0.99 1.32 1.98 2 3 C2.99 2.01 3.98 1.02 5 0 C5 0.66 5 1.32 5 2 C5.66 2.33 6.32 2.66 7 3 C5.08822066 4.3196087 3.17038369 5.63044459 1.25 6.9375 C0.18265625 7.66839844 -0.8846875 8.39929688 -1.984375 9.15234375 C-4.48274011 10.68307781 -6.15325323 11.56469649 -9 12 C-9 10.68 -9 9.36 -9 8 C-8.195625 7.87625 -7.39125 7.7525 -6.5625 7.625 C-5.716875 7.41875 -4.87125 7.2125 -4 7 C-3.67 6.34 -3.34 5.68 -3 5 C-3.66 4.67 -4.32 4.34 -5 4 C-4.360625 3.896875 -3.72125 3.79375 -3.0625 3.6875 C-2.381875 3.460625 -1.70125 3.23375 -1 3 C-0.67 2.01 -0.34 1.02 0 0 Z " fill="#EBF0F0" transform="translate(185,221)"/>
<path d="M0 0 C0.66 0.33 1.32 0.66 2 1 C-2.69834783 5.91801085 -7.33507533 10.22338356 -13 14 C-14 12 -14 12 -14 9 C-13.67 8.01 -13.34 7.02 -13 6 C-10.36 6 -7.72 6 -5 6 C-4.9175 5.38125 -4.835 4.7625 -4.75 4.125 C-4 2 -4 2 -2.0625 0.6875 C-1.381875 0.460625 -0.70125 0.23375 0 0 Z " fill="#203045" transform="translate(65,220)"/>
<path d="M0 0 C0.66 0.99 1.32 1.98 2 3 C0.625 4.5 0.625 4.5 -1 6 C-1.66 6 -2.32 6 -3 6 C-4.68873879 7.64429829 -6.35305515 9.31384218 -8 11 C-9.31175986 12.02813611 -10.6369893 13.04084432 -12 14 C-12.66 13.67 -13.32 13.34 -14 13 C-13.32453125 12.39671875 -12.6490625 11.7934375 -11.953125 11.171875 C-11.06109375 10.37265625 -10.1690625 9.5734375 -9.25 8.75 C-8.36828125 7.96109375 -7.4865625 7.1721875 -6.578125 6.359375 C-4.32133835 4.29407328 -2.14260074 2.18264936 0 0 Z " fill="#E1E9EE" transform="translate(70,217)"/>
<path d="M0 0 C1.61949011 2.57213134 2.04408751 3.67669159 1.625 6.75 C1.41875 7.4925 1.2125 8.235 1 9 C0.34 8.67 -0.32 8.34 -1 8 C-1.66 7.690625 -2.32 7.38125 -3 7.0625 C-5 6 -5 6 -7 4 C-4.69 2.68 -2.38 1.36 0 0 Z " fill="#EAF1F2" transform="translate(86,207)"/>
<path d="M0 0 C-2.48952921 2.66735273 -4.63408134 4.55746343 -8 6 C-8.66 4.68 -9.32 3.36 -10 2 C-6.3558226 -0.4294516 -4.28758728 -0.16179575 0 0 Z " fill="#EAEDF3" transform="translate(326,185)"/>
<path d="M0 0 C0.33 0.99 0.66 1.98 1 3 C0.34 3 -0.32 3 -1 3 C-1 3.66 -1 4.32 -1 5 C-0.34 5.33 0.32 5.66 1 6 C-0.65 5.67 -2.3 5.34 -4 5 C-4 4.34 -4 3.68 -4 3 C-4.66 2.67 -5.32 2.34 -6 2 C-4.02 1.34 -2.04 0.68 0 0 Z M-4 6 C-2 7 -2 7 -2 7 Z " fill="#23314A" transform="translate(180,231)"/>
<path d="M0 0 C2.625 -0.1875 2.625 -0.1875 5 0 C3.02 2.31 1.04 4.62 -1 7 C-1.33 5.68 -1.66 4.36 -2 3 C-1.34 2.01 -0.68 1.02 0 0 Z " fill="#E0E9EF" transform="translate(204,207)"/>
<path d="M0 0 C2.64 0.33 5.28 0.66 8 1 C7.67 1.66 7.34 2.32 7 3 C4.67843403 3.40729228 2.3431213 3.74438677 0 4 C0 2.66666667 0 1.33333333 0 0 Z " fill="#212F46" transform="translate(227,162)"/>
<path d="M0 0 C0 0.99 0 1.98 0 3 C-4.22222222 6 -4.22222222 6 -7 6 C-6.3125 3.5625 -6.3125 3.5625 -5 1 C-2.375 0.1875 -2.375 0.1875 0 0 Z " fill="#263446" transform="translate(81,208)"/>
<path d="M0 0 C0.99 0.33 1.98 0.66 3 1 C-0.625 5.875 -0.625 5.875 -4 7 C-4 4 -4 4 -2 1.8125 C-1.34 1.214375 -0.68 0.61625 0 0 Z " fill="#F0F5F9" transform="translate(207,177)"/>
<path d="M0 0 C0.680625 0.165 1.36125 0.33 2.0625 0.5 C5.4164822 1.07089059 8.60389805 1.06659023 12 1 C8.46588679 3.12046792 5.05606165 3.53199289 1 4 C0.67 2.68 0.34 1.36 0 0 Z " fill="#394055" transform="translate(88,202)"/>
<path d="M0 0 C0.33 0.66 0.66 1.32 1 2 C-0.8125 4.5 -0.8125 4.5 -3 7 C-3.99 7 -4.98 7 -6 7 C-6 6.34 -6 5.68 -6 5 C-4.04072937 3.2856382 -2.04119788 1.61594832 0 0 Z " fill="#1E293C" transform="translate(195,220)"/>
<path d="M0 0 C2.625 -0.1875 2.625 -0.1875 5 0 C3.35 1.98 1.7 3.96 0 6 C-0.66 5.01 -1.32 4.02 -2 3 C-1.34 2.01 -0.68 1.02 0 0 Z " fill="#EBF4FA" transform="translate(338,169)"/>
</svg>
